<?xml version="1.0" standalone="no"?><!DOCTYPE svg PUBLIC "-//W3C//DTD SVG 1.1//EN" "http://www.w3.org/Graphics/SVG/1.1/DTD/svg11.dtd"><svg class="icon" width="200px" height="200.00px" viewBox="0 0 1024 1024" version="1.1" xmlns="http://www.w3.org/2000/svg"><path d="M469.333333 170.666667a298.666667 298.666667 0 1 0 0 597.333333 298.666667 298.666667 0 0 0 0-597.333333z m-384 298.666666a384 384 0 1 1 768 0 384 384 0 0 1-768 0z" fill="#2c2c2c" /><path d="M678.4 712.533333a42.666667 42.666667 0 0 1 59.733333 8.533334l128 170.666666a42.666667 42.666667 0 0 1-68.266666 51.2l-128-170.666666a42.666667 42.666667 0 0 1 8.533333-59.733334z" fill="#2c2c2c" /></svg>