<svg t="1778660372911" class="icon" viewBox="0 0 1024 1024" version="1.1" xmlns="http://www.w3.org/2000/svg" p-id="56758" width="200" height="200"><path d="M938.667 426.667v-85.334c0-46.933-38.4-85.333-85.334-85.333H128c-46.933 0-85.333 38.4-85.333 85.333v341.334C42.667 729.6 81.067 768 128 768h725.333c46.934 0 85.334-38.4 85.334-85.333v-85.334c23.466 0 42.666-19.2 42.666-42.666v-85.334c0-23.466-19.2-42.666-42.666-42.666zM896 469.333v213.334c0 23.466-19.2 42.666-42.667 42.666H128c-23.467 0-42.667-19.2-42.667-42.666V341.333c0-23.466 19.2-42.666 42.667-42.666h725.333c23.467 0 42.667 19.2 42.667 42.666v128zM128 682.667h554.667V341.333H128v341.334z" fill="#2C2C2C" p-id="56759"></path></svg>