<svg t="1778660210359" class="icon" viewBox="0 0 1024 1024" version="1.1" xmlns="http://www.w3.org/2000/svg" p-id="49016" width="200" height="200"><path d="M512 1024c-282.816 0-512-85.952-512-192v-64a96 96 0 0 1 31.36-64c70.4 74.368 258.048 128 480.64 128s410.112-53.632 480.64-128a96 96 0 0 1 31.36 64v64c0 105.984-229.248 192-512 192z m0-256c-282.816 0-512-85.952-512-192V512a96 96 0 0 1 31.36-64C101.76 522.368 289.408 576 512 576s410.112-53.568 480.64-128A96 96 0 0 1 1024 512v64c0 105.984-229.248 192-512 192z m0-256C229.184 512 0 426.048 0 320V192c0-106.048 229.184-192 512-192s512 85.952 512 192v128c0 105.984-229.248 192-512 192z" p-id="49017"></path></svg>