<?xml version="1.0" standalone="no"?><!DOCTYPE svg PUBLIC "-//W3C//DTD SVG 1.1//EN" "http://www.w3.org/Graphics/SVG/1.1/DTD/svg11.dtd"><svg class="icon" width="200px" height="200.00px" viewBox="0 0 1024 1024" version="1.1" xmlns="http://www.w3.org/2000/svg"><path d="M779.264 196.736a241.92 241.92 0 0 0-341.696 0L176.64 457.536a8.96 8.96 0 0 0-2.56 6.4 8.96 8.96 0 0 0 2.56 6.4l36.928 36.864a8.96 8.96 0 0 0 12.672 0L487.168 246.4a170.432 170.432 0 0 1 121.28-50.176c45.824 0 88.96 17.792 121.216 50.176 32.448 32.384 50.24 75.52 50.24 121.216 0 45.76-17.792 88.768-50.24 121.216l-265.984 265.856-43.072 43.136a103.36 103.36 0 0 1-176.32-72.96c0-27.648 10.688-53.568 30.208-73.088l263.872-263.744a35.264 35.264 0 0 1 24.96-10.304 34.88 34.88 0 0 1 24.704 59.904l-215.68 215.488a8.96 8.96 0 0 0-2.56 6.4 8.96 8.96 0 0 0 2.56 6.4l36.928 36.864a8.96 8.96 0 0 0 12.672 0l215.68-215.552c19.84-19.904 30.72-46.336 30.72-74.432 0-28.096-10.944-54.592-30.72-74.368a105.536 105.536 0 0 0-149.056 0l-25.6 25.664-238.208 238.08a172.16 172.16 0 0 0-50.816 122.752 173.248 173.248 0 0 0 173.44 173.184 172.8 172.8 0 0 0 122.688-50.688l309.184-308.992a240.448 240.448 0 0 0 70.72-170.88 239.616 239.616 0 0 0-70.72-170.88z" fill="#2c2c2c" /></svg>