<svg t="1778659943157" class="icon" viewBox="0 0 1058 1024" version="1.1" xmlns="http://www.w3.org/2000/svg" p-id="44179" width="200" height="200"><path d="M62 180.17c5.04-23.85 15.03-43.11 29.99999971-57.78 14.96999971-14.67 34.94999971-24.77999971 60.00000029-30.39000029C259.93999971 88.91 340.19 88.91 392.77999971 91.99999971c19.73999971 12.30000029 59.28000029 12.08999971 89.22000058 44.16000029 30.75000029 32.91000029 51.72000029 98.1 59.4 105.75 135.09 0 265.83000029 0.42000029 392.18999942 1.26 23.04 5.51999971 38.40000029 15.27000029 46.14000029 29.25 7.71000029 14.01000029 11.79 33.68999971 12.26999971 59.06999971v573.93a64.10999971 64.10999971 0 0 1-29.54999971 42.75c-15.75 9.9-35.88000029 14.51999971-60.3 13.83000029H152c-21.30000029 0-41.28000029-1.71-60.00000029-5.15999971-18.72-3.44999971-28.71-20.58000029-29.99999971-51.42000058V180.19999971z m90 62.61000029v569.99999971c-1.41000029 16.49999971 2.22000029 30.15 10.95000029 40.97999971 8.73 10.86000029 25.47 16.29 50.22 16.29H842.00000029a139.79999971 139.79999971 0 0 0 37.46999971-16.29c11.09999971-6.99000029 18.65999971-20.63999971 22.68-40.97999971l4.95-427.86c0-22.11000029-1.71-36.29999971-5.10000029-42.59999971-5.10000029-9.36-25.49999971-13.20000029-59.99999942-13.20000029-117.69000029-2.45999971-236.04000029-2.94000029-360-3.12000029-4.59 0-20.45999971-0.81-30.00000058-13.37999942-9.51000029-12.51-12.71999971-36.72-13.64999942-40.41C419.50999971 197.38999971 399.65000029 187.21999971 361.99999971 181.99999971c-62.01-8.61000029-105.00000029 0-148.82999942 0C183.95 181.99999971 163.54999971 202.24999971 152 242.78000029z" fill="#000000" p-id="44180"></path><path d="M302.00000029 631.99999971h450c20.00999971 9.20999971 29.99999971 23.82000029 29.99999971 43.80000029 0 19.98-9.99 34.56-29.99999971 43.80000029H302.00000029c-15.03-10.98-22.56000029-25.58999971-22.56000029-43.80000029S286.93999971 642.97999971 302.00000029 631.99999971z" fill="#000000" p-id="44181"></path></svg>