<svg t="1778660728677" class="icon" viewBox="0 0 1024 1024" version="1.1" xmlns="http://www.w3.org/2000/svg" p-id="77679" width="200" height="200"><path d="M861.88425 575.897286c-60.440557 0-83.808778-34.316573-112.75504-82.233909-24.761963 47.473221-73.691349 82.233909-120.924093 82.233909-47.614437 0-100.016925-29.937846-117.928876-70.797439-17.868973 41.851177-71.387887 70.797439-119.992885 70.797439-46.025243 0-94.216825-31.915897-120.033817-77.44279-23.014156 46.831608-77.360925 77.44279-111.639636 77.44279l-62.678528 0 0.093121 191.68367 829.688479 0L925.712975 575.897286C917.546991 577.427128 871.234199 575.897286 861.88425 575.897286zM96.023472 895.377574c0 35.270295 32.366152 63.896262 68.710918 63.896262l691.12054 0c36.348859 0 69.855998-28.626991 69.855998-63.896262l0-63.894216L96.023472 831.483358 96.023472 895.377574zM64.013431 448.102714c0 44.121893 47.586808 64.888869 95.584985 64.888869 47.332005 0 96.608292-32.750915 96.608292-64.888869l30.222325 0c0 41.218774 56.172347 63.901379 105.384166 63.901379 47.167253 0 103.018282-31.664164 103.018282-63.901379l30.92943 0c0 31.248701 54.891168 63.901379 102.094236 63.901379 49.211818 0 106.376773-31.664164 106.376773-63.901379l30.156834 0c0 32.778544 46.212508 63.865563 97.496521 63.901379 44.49233 0.026606 95.271854-19.779486 95.745644-63.901379l0-63.893192L64.013431 384.209522 64.013431 448.102714zM806.703487 64.727187 213.986117 64.727187 65.29154 320.314283l893.264447 0L806.703487 64.727187z" fill="#e6e6e6" p-id="77680"></path></svg>