<?xml version="1.0" standalone="no"?><!DOCTYPE svg PUBLIC "-//W3C//DTD SVG 1.1//EN" "http://www.w3.org/Graphics/SVG/1.1/DTD/svg11.dtd"><svg class="icon" width="200px" height="200.00px" viewBox="0 0 1024 1024" version="1.1" xmlns="http://www.w3.org/2000/svg"><path d="M957.625638 959.878239l-4.505406 4.505406c-16.178504 16.178504-42.391777 16.178504-58.570282 0L66.374362 136.412848c-16.178504-16.178504-16.178504-42.391777 0-58.570282l4.505406-4.505406c16.178504-16.178504 42.391777-16.178504 58.570282 0l827.970797 827.970797c16.178504 16.383296 16.178504 42.391777 0.204791 58.570282zM188.429914 320.929714H142.966268c-13.106636 0-23.755779 10.649142-23.755778 23.755778v334.628811c0 13.106636 10.649142 23.755779 23.755778 23.755779H417.796051c6.348527 0 12.287472 2.457494 16.792878 6.9629l306.981999 306.982c14.949757 14.949757 40.343865 4.300615 40.343866-16.792878v-85.602719L188.429914 320.929714zM782.119585 663.545381V23.777691c0-21.093493-25.598899-31.742635-40.343865-16.792878l-307.186791 306.982c-0.409582 0.409582-0.819165 0.409582-1.228747 0.819165L782.119585 663.545381z" fill="#bfbfbf" /></svg>