<?xml version="1.0" standalone="no"?><!DOCTYPE svg PUBLIC "-//W3C//DTD SVG 1.1//EN" "http://www.w3.org/Graphics/SVG/1.1/DTD/svg11.dtd"><svg class="icon" width="200px" height="200.00px" viewBox="0 0 1024 1024" version="1.1" xmlns="http://www.w3.org/2000/svg"><path d="M413.184 7.104L413.12 107.84C231.104 152.192 96 316.32 96 512c0 229.76 186.24 416 416 416s416-186.24 416-416c0-140.704-70.4-269.472-185.216-346.176a32 32 0 1 0-35.52 53.248A351.584 351.584 0 0 1 864 512c0 194.4-157.6 352-352 352S160 706.4 160 512c0-160.096 106.88-295.2 253.152-337.92v89.024l213.344-128-213.312-128z m79.36 334.24l-19.968 205.824h55.808c7.168-12.8 16.896-22.016 29.696-28.16 11.264-5.632 25.088-8.192 40.96-8.192 23.552 0 41.984 6.656 54.272 20.992 12.288 13.824 18.944 33.28 18.944 57.856 0 22.528-7.68 40.448-22.016 53.76-14.848 13.312-33.28 19.968-54.784 19.968-19.968 0-35.84-4.608-47.104-12.8-13.312-9.728-20.992-24.576-23.552-44.544h-58.88c2.56 33.792 16.896 60.928 43.52 80.896 23.552 17.92 52.224 27.136 85.504 27.136 36.352 0 67.584-10.752 94.208-32.256 28.672-24.064 43.008-54.784 43.008-92.672 0-39.424-11.264-70.656-32.768-93.184-21.504-22.528-49.664-33.792-83.968-33.792-16.384 0-31.232 2.56-44.544 7.68-14.848 5.12-27.648 13.312-38.912 24.576h-1.536l10.24-100.352h174.592v-52.736h-222.72z m-138.24 0c-12.288 12.8-27.648 24.576-46.08 35.84-18.432 10.24-35.84 17.408-52.224 21.504v59.392c33.792-9.728 61.44-24.576 83.456-44.544v293.376h59.904V341.344h-45.056z" fill="#ffffff" /></svg>