<?xml version="1.0" standalone="no"?><!DOCTYPE svg PUBLIC "-//W3C//DTD SVG 1.1//EN" "http://www.w3.org/Graphics/SVG/1.1/DTD/svg11.dtd"><svg class="icon" width="200px" height="200.00px" viewBox="0 0 1024 1024" version="1.1" xmlns="http://www.w3.org/2000/svg"><path d="M415.804235 394.721882v343.521883H349.967059V491.098353c-24.094118 22.407529-52.404706 38.972235-85.112471 49.694118V481.28c17.167059-5.601882 35.900235-16.203294 56.018824-31.804235 20.178824-15.661176 34.032941-33.912471 41.562353-54.753883h53.428706z m278.287059 304.128c-22.407529 30.177882-53.428706 45.296941-93.123765 45.296942-31.744 0-57.645176-8.493176-77.703529-25.47953-19.937882-16.926118-31.924706-39.755294-35.84-68.367059l65.656471-6.746353c1.867294 14.757647 7.469176 26.503529 16.685176 35.117177a45.296941 45.296941 0 0 0 66.861177-3.734588c9.517176-11.143529 14.275765-27.888941 14.275764-50.296471 0-21.022118-4.758588-36.743529-14.215529-47.284706a47.405176 47.405176 0 0 0-36.924235-15.721412c-18.913882 0-35.900235 8.312471-50.898824 24.937412l-53.488941-7.710118 33.792-178.055529h174.260706v61.379765H579.162353l-10.360471 58.127059a99.990588 99.990588 0 0 1 45.056-10.962824c29.214118 0 54.031059 10.541176 74.330353 31.744 20.359529 21.082353 30.479059 48.609882 30.479059 82.341647 0 28.190118-8.192 53.308235-24.636235 75.414588z" fill="#ffffff" /><path d="M382.132706 133.722353a12.348235 12.348235 0 0 0 0 21.082353l149.022118 92.641882a12.649412 12.649412 0 0 0 19.335529-10.480941V181.308235c173.839059 31.081412 323.403294 195.162353 323.403294 372.013177 0 196.487529-184.681412 375.145412-382.132706 375.145412-197.511529 0-378.277647-178.657882-378.277647-375.145412 0-98.304 43.670588-201.487059 108.42353-265.878588a35.538824 35.538824 0 0 0 11.324235-26.021648 36.201412 36.201412 0 1 0-64.150588-22.708705A446.945882 446.945882 0 0 0 39.936 553.321412c0 248.289882 202.209882 449.536 451.764706 449.536 249.494588 0 451.764706-201.246118 451.764706-449.536 0-228.472471-171.309176-417.129412-393.035294-445.741177v-56.018823a12.649412 12.649412 0 0 0-19.33553-10.480941L382.132706 133.722353z" fill="#ffffff" /></svg>