<?xml version="1.0" standalone="no"?><!DOCTYPE svg PUBLIC "-//W3C//DTD SVG 1.1//EN" "http://www.w3.org/Graphics/SVG/1.1/DTD/svg11.dtd"><svg class="icon" width="200px" height="200.00px" viewBox="0 0 1024 1024" version="1.1" xmlns="http://www.w3.org/2000/svg"><path d="M581 39q0-16-11.5-27.5T541 0H116Q67 1 34 34.5T0 118v788q1 50 34 83.5t82 34.5h775q49-1 81.5-34.5T1007 906V472q-1-17-12-27.5T968 434q-16 0-27 10.5T929 472v434q0 17-11 28t-27 11H116q-16 0-27-11t-12-28V118q1-17 12-28t27-11h425q17 0 28.5-11.5T581 39z m-92 569q-17 0-29.5-12.5T447 566q0-17 13-30L952 34q13-12 30-12t29.5 12.5Q1024 47 1024 64t-12 31L519 596q-12 12-30 12z" fill="#2c2c2c" /></svg>