<?xml version="1.0" standalone="no"?><!DOCTYPE svg PUBLIC "-//W3C//DTD SVG 1.1//EN" "http://www.w3.org/Graphics/SVG/1.1/DTD/svg11.dtd"><svg class="icon" width="200px" height="200.00px" viewBox="0 0 1024 1024" version="1.1" xmlns="http://www.w3.org/2000/svg"><path d="M786.617866 374.689817a372.549818 372.549818 0 0 0-398.149806 261.213873l-247.899879-248.086879c-21.689989-21.689989-24.669988-53.992974-6.516996-72.145965a44.962978 44.962978 0 0 1 44.776978-9.866995l205.729899-26.065988c8.843996 2.513999 17.408991 6.236997 25.506988 10.891995l177.617913-177.617913-35.932982-36.025983c-19.92199-19.82799-22.527989-49.430976-5.957997-66.093967 16.662992-16.569992 46.265977-13.963993 66.094967 5.956997l302.265853 302.266852c19.82799 19.92099 22.341989 49.523976 5.863997 66.093968-16.662992 16.662992-46.265977 13.963993-66.093968-5.864997l-36.025982-36.025983v0.093l-31.278985 31.278985zM255.535125 623.244696l52.129975 52.036974a42.542979 42.542979 0 0 1-3.909998 63.674969L68.980216 921.59955a42.542979 42.542979 0 0 1-59.763971-59.763971l182.736911-234.589885a42.542979 42.542979 0 0 1 63.674969-4.001998v-0.187z" fill="#2c2c2c" /><path d="M744.726886 1023.9995a279.272864 279.272864 0 1 1 0-558.544727 279.272864 279.272864 0 0 1 0 558.544727zM628.363943 716.79965a23.272989 23.272989 0 1 0 0 46.544977H861.08983a23.272989 23.272989 0 1 0 0-46.544977H628.363943z" fill="#2c2c2c" /></svg>