<?xml version="1.0" standalone="no"?><!DOCTYPE svg PUBLIC "-//W3C//DTD SVG 1.1//EN" "http://www.w3.org/Graphics/SVG/1.1/DTD/svg11.dtd"><svg class="icon" width="200px" height="200.00px" viewBox="0 0 1024 1024" version="1.1" xmlns="http://www.w3.org/2000/svg"><path d="M181.205333 110.208l725.333334 810.666667a42.666667 42.666667 0 0 1-63.573334 56.917333L682.666667 798.677333l0.042666 11.989334a170.666667 170.666667 0 0 1-335.957333 42.666666H128.085333c-39.893333 0-57.984-49.92-27.306666-75.434666 1.962667-1.664 7.04-6.741333 14.293333-15.573334 13.013333-15.914667 26.282667-36.266667 38.826667-61.44 33.792-67.456 55.552-154.922667 59.050666-264.917333a42.666667 42.666667 0 0 1 85.290667 2.730667c-3.882667 122.197333-28.672 221.738667-68.010667 300.373333-3.84 7.68-7.68 14.890667-11.52 21.76L214.613333 768h440.661334L117.632 167.125333a42.666667 42.666667 0 0 1 63.573333-56.917333zM585.941333 853.333333H438.186667l2.304 3.797334c14.122667 21.76 37.888 36.608 65.237333 38.656l6.357333 0.213333c29.994667 0 56.362667-15.488 71.594667-38.869333l2.261333-3.797334zM512.085333 42.666667a85.333333 85.333333 0 0 1 84.864 76.245333A298.709333 298.709333 0 0 1 810.752 405.333333c0 124.117333 22.485333 221.568 59.477333 295.594667 12.586667 25.130667 25.856 45.482667 38.869334 61.397333 7.253333 8.832 12.373333 13.909333 14.293333 15.573334a42.666667 42.666667 0 0 1-54.613333 65.536c-20.352-16.938667-48.128-50.858667-74.837334-104.362667-43.008-85.973333-68.522667-196.522667-68.522666-333.738667a213.333333 213.333333 0 0 0-334.805334-175.36 42.666667 42.666667 0 0 1-48.682666-70.144 297.386667 297.386667 0 0 1 85.333333-40.96A85.290667 85.290667 0 0 1 512.085333 42.666667z" fill="#2c2c2c" /></svg>