<svg t="1778660920109" class="icon" viewBox="0 0 1024 1024" version="1.1" xmlns="http://www.w3.org/2000/svg" p-id="82598" width="200" height="200"><path d="M512.272199 782.71409h-99.629916c-27.850246 0.510629-53.41136-15.334213-65.323644-40.518751a57.054323 57.054323 0 0 1-6.395651-29.371899 202.629572 202.629572 0 0 0-30.648982-109.486381 195.840972 195.840972 0 0 0-27.195331-33.20315 464.193277 464.193277 0 0 1-54.73961-74.630595 414.544606 414.544606 0 0 1-36.493072-72.985122 241.415869 241.415869 0 0 1-13.853492-75.182157 329.117128 329.117128 0 0 1 7.845673-82.107878c8.765623-40.088964 25.704377-77.919495 49.814446-111.122645A353.604797 353.604797 0 0 1 367.381541 39.87714 316.717752 316.717752 0 0 1 438.915617 15.424264a362.795091 362.795091 0 0 1 89.954575-7.294113A322.339785 322.339785 0 0 1 650.566639 36.409162a312.365639 312.365639 0 0 1 68.25541 43.065755 365.180413 365.180413 0 0 1 79.553711 90.128537 304.362378 304.362378 0 0 1 40.692713 101.641731 307.050598 307.050598 0 0 1 6.201224 88.871919 250.318615 250.318615 0 0 1-18.246537 74.251973 419.206779 419.206779 0 0 1-58.212703 102.918815 456.560451 456.560451 0 0 1-33.019979 38.321717 158.059559 158.059559 0 0 0-30.116864 46.340329 213.662837 213.662837 0 0 0-18.246536 53.65593c-1.818411 11.299324-1.818411 22.435944-2.922557 33.571539a149.517016 149.517016 0 0 1-3.451605 24.448783 67.313971 67.313971 0 0 1-32.488884 39.046217 73.012751 73.012751 0 0 1-38.127289 9.858512l-98.164544 0.183171zM491.470472 93.15547c-10.584035 1.092889-21.535436 2.011816-31.935276 3.831251a205.356677 205.356677 0 0 0-71.882 25.735076 231.863325 231.863325 0 0 0-53.840125 42.877468 218.887828 218.887828 0 0 0-41.784578 61.492393 228.276644 228.276644 0 0 0-18.246537 91.231658 27.221937 27.221937 0 0 0 9.194388 21.75033 27.215797 27.215797 0 0 0 22.741912 6.354719 27.755079 27.755079 0 0 0 21.535435-25.366687v-13.313187a158.337898 158.337898 0 0 1 9.296719-47.270512 179.509038 179.509038 0 0 1 62.585282-81.188952 162.081145 162.081145 0 0 1 91.231658-33.223615c6.109126-0.081864 12.218252-0.572027 18.245513-1.451046a22.449247 22.449247 0 0 0 18.25677-14.965823 29.913227 29.913227 0 0 0 0-18.246536 22.631395 22.631395 0 0 0-20.075181-18.246537h-15.32398zM385.078563 844.421377h253.823432c11.074198 0 20.126346 9.051125 20.126346 20.125323v61.910925c0 11.064988-9.052149 20.116113-20.126346 20.116113H385.078563c-11.054755 0-20.10588-9.052149-20.10588-20.116113v-61.910925c0-11.074198 9.051125-20.125323 20.10588-20.125323z" fill="#e6e6e6" p-id="82599"></path><path d="M431.521222 895.502674h160.957556c18.716233 0 34.041236 15.32398 34.041236 34.050446v52.624439c0 18.726466-15.325003 34.041236-34.041236 34.041236H431.521222c-18.736699 0-34.061702-15.31477-34.061702-34.041236v-52.624439c0.001023-18.727489 15.325003-34.050446 34.061702-34.050446z" fill="#e6e6e6" p-id="82600"></path></svg>