<svg t="1778660601106" class="icon" viewBox="0 0 1024 1024" version="1.1" xmlns="http://www.w3.org/2000/svg" p-id="66983" width="200" height="200"><path d="M512.096307 20.48c-20.48 0-41.472 10.752-51.712 32.256l-113.152 230.4c-8.192 16.896-24.576 29.184-43.52 31.744L49.760307 352.256C2.144307 358.912-16.799693 417.28 17.504307 450.56l183.808 180.224c13.312 13.312 19.968 32.256 16.384 51.2L174.176307 935.936c-6.144 37.376 23.552 67.584 56.832 67.584 8.704 0 17.92-2.048 27.136-6.656l226.816-119.808c8.192-4.608 17.92-6.656 27.136-6.656 9.216 0 18.432 2.048 27.136 6.656l226.816 119.808c8.704 4.608 17.92 6.656 27.136 6.656 33.792 0 63.488-30.208 56.832-67.584l-43.52-253.952c-3.072-18.944 3.072-37.888 16.384-51.2L1006.688307 450.56c34.304-33.28 15.36-91.648-32.256-98.304l-253.952-36.864c-18.944-2.56-35.328-14.848-43.52-31.744l-113.152-230.912C553.568307 31.232 532.576307 20.48 512.096307 20.48z" p-id="66984" fill="#e6e6e6"></path></svg>