<svg t="1778638573155" class="icon" viewBox="0 0 1024 1024" version="1.1" xmlns="http://www.w3.org/2000/svg" p-id="26224" width="200" height="200"><path d="M514.304 53.312h-4.608c-78.528 0-140.544 0-189.056 6.336-49.856 6.4-90.24 20.032-122.24 50.816-32.064 30.976-46.4 70.336-53.12 118.912-6.592 46.976-6.592 106.88-6.592 182.336v358.272c0 46.784 0 85.76 4.48 114.944 4.672 30.272 15.488 59.712 45.44 75.648 26.624 14.272 56 11.392 80.832 3.84 25.152-7.68 50.752-21.504 74.176-36.352 23.68-14.912 46.784-31.936 66.944-46.848l2.368-1.728c19.776-14.592 35.648-26.304 47.744-33.6 17.024-10.24 27.776-16.704 36.48-20.864A34.304 34.304 0 0 1 512 820.672c2.816 0 6.72 0.64 14.784 4.352 8.704 4.16 19.52 10.56 36.544 20.864 12.16 7.296 27.968 19.008 47.744 33.6l2.368 1.728c20.16 14.912 43.328 31.936 66.944 46.848 23.424 14.848 49.024 28.672 74.176 36.352 24.832 7.552 54.208 10.432 80.896-3.84 29.888-16 40.704-45.44 45.44-75.648 4.48-29.248 4.48-68.16 4.48-114.944V411.712c0-75.392 0-135.36-6.592-182.4-6.784-48.512-21.12-87.872-53.248-118.848-32-30.784-72.32-44.416-122.176-50.816C654.848 53.312 592.832 53.312 514.304 53.312z" fill="#e6e6e6" p-id="26225"></path></svg>