<?xml version="1.0" standalone="no"?><!DOCTYPE svg PUBLIC "-//W3C//DTD SVG 1.1//EN" "http://www.w3.org/Graphics/SVG/1.1/DTD/svg11.dtd"><svg class="icon" width="200px" height="200.00px" viewBox="0 0 1024 1024" version="1.1" xmlns="http://www.w3.org/2000/svg"><path d="M873.96512 108.128h128.512c11.36 0 20.608 6.88 20.608 15.36V174.08c0 8.48-9.28 15.36-20.608 15.36H873.93312c-11.36 0-20.608-6.88-20.608-15.36V123.52c0-8.48 9.28-15.36 20.608-15.36z m-264.096 780.352h393.504c11.392 0 20.64 6.88 20.64 15.36v50.624c0 8.48-9.28 15.36-20.64 15.36H609.86912c-11.36 0-20.608-6.88-20.608-15.36v-50.624c0.096-8.48 9.248-15.36 20.608-15.36z m152.224-390.176h240.256c11.392 0 20.64 6.88 20.64 15.36v50.624c0 8.48-9.28 15.36-20.64 15.36h-240.256c-11.36 0-20.64-6.88-20.64-15.36v-50.624c0.096-8.48 9.28-15.36 20.64-15.36z m47.36-444.8l-25.696-19.616c-9.76-5.952-27.36 4.064-27.36 4.16L302.76512 782.112l-241.056-139.072a20.544 20.544 0 0 0-27.68 6.848L5.45312 687.936c-5.728 9.056-8.64 15.84 0 22.272l334.24 252.064L816.97312 80.96a20.608 20.608 0 0 0-7.456-27.488z" fill="#2c2c2c" /></svg>